<svg xmlns="http://www.w3.org/2000/svg" width="1400" height="900" viewBox="0 0 1400 900">
  <defs><marker id="a" markerWidth="9" markerHeight="9" refX="8" refY="3" orient="auto"><path d="M0,0 L0,6 L8,3 z" fill="#596b84"/></marker><style>.t{font:700 32px 'Microsoft YaHei';fill:#182230}.h{font:700 18px 'Microsoft YaHei';fill:#fff}.n{font:400 14px 'Consolas','Microsoft YaHei';fill:#243249}.b{rx:14;ry:14;stroke:#91a6d7;stroke-width:2;fill:#fff}.hd{rx:14;ry:14;fill:#405caa}.l{stroke:#596b84;stroke-width:2;fill:none;marker-end:url(#a)}.s{font:400 13px 'Microsoft YaHei';fill:#52647a}</style></defs>
  <rect width="1400" height="900" fill="#f8fafc"/><text x="700" y="52" text-anchor="middle" class="t">智能互动教学平台核心数据 E R 图</text>
  <g transform="translate(65 110)"><rect width="245" height="170" class="b"/><rect width="245" height="42" class="hd"/><text x="122" y="28" text-anchor="middle" class="h">user 用户</text><text x="18" y="70" class="n">PK id</text><text x="18" y="94" class="n">username</text><text x="18" y="118" class="n">password_hash</text><text x="18" y="142" class="n">role status</text></g>
  <g transform="translate(430 110)"><rect width="260" height="195" class="b"/><rect width="260" height="42" class="hd"/><text x="130" y="28" text-anchor="middle" class="h">course 课程</text><text x="18" y="70" class="n">PK id</text><text x="18" y="94" class="n">FK owner_id</text><text x="18" y="118" class="n">title subject grade</text><text x="18" y="142" class="n">status review_status</text><text x="18" y="166" class="n">created_at updated_at</text></g>
  <g transform="translate(815 110)"><rect width="260" height="195" class="b"/><rect width="260" height="42" class="hd"/><text x="130" y="28" text-anchor="middle" class="h">lesson_scene 场景</text><text x="18" y="70" class="n">PK id</text><text x="18" y="94" class="n">FK course_id</text><text x="18" y="118" class="n">scene_type title</text><text x="18" y="142" class="n">content_json sort_order</text><text x="18" y="166" class="n">status</text></g>
  <g transform="translate(65 405)"><rect width="260" height="195" class="b"/><rect width="260" height="42" class="hd"/><text x="130" y="28" text-anchor="middle" class="h">material 资料</text><text x="18" y="70" class="n">PK id</text><text x="18" y="94" class="n">FK course_id</text><text x="18" y="118" class="n">file_name file_type</text><text x="18" y="142" class="n">storage_url parse_status</text><text x="18" y="166" class="n">created_at</text></g>
  <g transform="translate(430 405)"><rect width="260" height="195" class="b"/><rect width="260" height="42" class="hd"/><text x="130" y="28" text-anchor="middle" class="h">question 题目</text><text x="18" y="70" class="n">PK id</text><text x="18" y="94" class="n">FK course_id scene_id</text><text x="18" y="118" class="n">stem options_json</text><text x="18" y="142" class="n">answer analysis</text><text x="18" y="166" class="n">knowledge_point</text></g>
  <g transform="translate(815 405)"><rect width="270" height="220" class="b"/><rect width="270" height="42" class="hd"/><text x="135" y="28" text-anchor="middle" class="h">answer_record 答题记录</text><text x="18" y="70" class="n">PK id</text><text x="18" y="94" class="n">FK question_id user_id</text><text x="18" y="118" class="n">course_id</text><text x="18" y="142" class="n">submitted_answer score</text><text x="18" y="166" class="n">feedback is_correct</text><text x="18" y="190" class="n">created_at</text></g>
  <g transform="translate(1140 240)"><rect width="210" height="190" class="b"/><rect width="210" height="42" class="hd"/><text x="105" y="28" text-anchor="middle" class="h">knowledge_point</text><text x="18" y="70" class="n">PK id</text><text x="18" y="94" class="n">FK course_id</text><text x="18" y="118" class="n">name description</text><text x="18" y="142" class="n">parent_id relation</text></g>
  <g transform="translate(450 700)"><rect width="250" height="150" class="b"/><rect width="250" height="42" class="hd"/><text x="125" y="28" text-anchor="middle" class="h">chat_message 问答记录</text><text x="18" y="70" class="n">PK id</text><text x="18" y="94" class="n">FK course_id user_id</text><text x="18" y="118" class="n">role content created_at</text></g>
  <path d="M310 190 L430 190" class="l"/><text x="350" y="178" class="s">1 对多</text><path d="M690 200 L815 200" class="l"/><path d="M560 305 L220 405" class="l"/><path d="M560 305 L560 405" class="l"/><path d="M690 500 L815 500" class="l"/><path d="M1075 210 L1140 295" class="l"/><path d="M580 600 L575 700" class="l"/><path d="M310 230 C390 650 445 710 450 760" class="l"/>
</svg>
